<svg xmlns="http://www.w3.org/2000/svg" viewBox="0 0 456 456"><rect fill="#512bd4" width="456" height="456" rx="50"/><path d="M81.274 291.333h-9.596l-42.236-64.381a22.79 22.79 0 0 1-2.408-4.585h-.322a74.965 74.965 0 0 1 .483 10.291v58.675h-8.474V217.14h10.24l41.271 63.258c1.929 2.894 3.214 5.07 3.857 6.507h.161c-.321-3.536-.483-8.152-.483-13.834V217.14h8.708zM138.533 291.333h-44.8V217.14h43.036v7.787h-34.24v24.813h32.155v7.629h-32.155v26.175h35.924zM194.027 225.007h-24.652v66.326h-8.8v-66.326h-24.57v-7.867h58.022z" fill="#fff"/><circle cx="376.243" cy="285.057" r="9.596" fill="#fff"/><path d="M299.291 291.333h-44.8V217.14h43.036v7.787h-34.24v24.813h32.155v7.629h-32.155v26.175h35.924zM362.256 225.007h-24.652v66.326h-8.8v-66.326h-24.57v-7.867h58.022z" fill="#fff"/></svg>
